<?xml version="1.0" standalone="no"?>
<!DOCTYPE svg PUBLIC "-//W3C//DTD SVG 20010904//EN"
 "http://www.w3.org/TR/2001/REC-SVG-20010904/DTD/svg10.dtd">
<svg version="1.0" xmlns="http://www.w3.org/2000/svg"
 width="400.000000pt" height="400.000000pt" viewBox="0 0 400.000000 400.000000"
 preserveAspectRatio="xMidYMid meet">
<metadata>
Created by potrace 1.11, written by Peter Selinger 2001-2013
</metadata>
<g transform="translate(0.000000,400.000000) scale(0.100000,-0.100000)"
fill="#000000" stroke="none">
<path d="M2612 3243 c-7 -2 -17 -13 -22 -23 -10 -19 -9 -19 20 -2 39 22 41 41
2 25z"/>
<path d="M2539 3223 c-13 -17 -13 -17 6 -3 11 8 22 16 24 17 2 2 0 3 -6 3 -6
0 -17 -8 -24 -17z"/>
<path d="M2670 3217 c-14 -12 -20 -18 -13 -13 8 5 13 4 13 -3 0 -7 5 -9 13 -5
9 6 9 5 0 -8 -7 -8 -10 -18 -6 -22 13 -12 11 -35 -3 -47 -17 -14 -19 -33 -1
-23 8 5 8 2 -2 -9 -16 -20 -25 -23 -15 -4 14 23 -5 1 -31 -37 -14 -21 -24 -40
-22 -43 3 -2 21 10 40 26 39 35 52 38 61 15 6 -15 4 -15 -11 -3 -10 7 -15 9
-10 4 4 -5 -5 -21 -20 -37 -15 -15 -23 -28 -19 -28 5 0 2 -8 -5 -17 -12 -15
-12 -16 1 -8 8 5 31 20 50 34 20 15 29 19 21 8 -15 -20 -2 -23 19 -4 28 25
-37 -56 -90 -112 -30 -32 -80 -87 -110 -122 -49 -57 -44 -54 46 32 98 93 164
147 164 134 0 -4 -10 -15 -22 -26 -21 -17 -21 -18 -3 -12 18 6 18 5 6 -10 -7
-9 -18 -14 -24 -10 -6 3 -7 1 -3 -5 3 -6 -8 -28 -26 -49 -25 -29 -26 -33 -8
-18 14 11 33 29 42 40 11 12 18 15 18 7 0 -7 5 -10 10 -7 6 4 7 12 4 18 -4 7
-4 9 1 5 4 -4 13 -3 20 2 28 23 9 -22 -27 -66 -21 -25 -38 -48 -38 -50 0 -10
13 -2 49 32 22 19 51 36 65 38 15 1 29 6 34 11 4 4 1 5 -7 0 -10 -5 -12 -4 -7
4 4 6 11 9 16 6 5 -3 18 -1 29 5 21 10 40 -3 21 -15 -6 -4 -7 -11 -4 -17 4 -7
2 -8 -5 -4 -6 4 -8 12 -5 18 4 7 2 8 -5 4 -6 -4 -9 -11 -6 -16 3 -5 1 -11 -5
-15 -6 -4 -7 -11 -4 -17 4 -5 21 4 40 23 36 35 59 33 28 -3 -13 -14 -14 -19
-4 -14 8 4 5 -1 -7 -12 -12 -11 -19 -23 -15 -27 4 -4 -6 -5 -22 -1 -15 4 -41
10 -57 13 l-29 6 0 -70 c0 -41 -5 -74 -12 -82 -10 -11 -10 -13 0 -7 23 13 13
-27 -15 -58 l-28 -30 28 17 27 17 0 -177 c0 -98 3 -314 7 -481 l6 -303 -29
-32 c-29 -32 -29 -32 -1 -8 l27 24 0 -98 0 -98 41 6 c48 6 75 28 95 77 25 59
41 290 42 595 l0 290 54 50 c123 115 194 163 105 71 -35 -36 -27 -48 10 -15
15 13 22 17 15 8 -6 -9 -8 -19 -4 -23 4 -4 2 -6 -3 -4 -14 4 -61 -44 -57 -60
2 -7 -2 -11 -9 -10 -6 2 -13 -5 -14 -14 -2 -10 1 -18 5 -18 5 0 15 8 22 18 7
9 47 49 88 87 75 70 64 50 -19 -34 -25 -24 -58 -61 -75 -80 -28 -33 6 -4 100
87 31 29 51 19 29 -14 -8 -13 -12 -24 -8 -24 4 0 -6 -14 -23 -32 -16 -18 -22
-28 -14 -23 9 6 7 2 -3 -7 -11 -10 -16 -18 -12 -18 4 0 -16 -23 -44 -52 -28
-28 -49 -54 -46 -56 3 -3 14 3 24 12 11 10 25 15 32 10 8 -4 10 -3 5 4 -7 11
7 17 29 12 5 -1 7 2 3 5 -11 12 12 47 27 42 16 -7 78 56 68 68 -5 4 -3 5 3 2
6 -4 22 5 34 18 13 14 30 25 37 25 8 0 12 4 8 9 -6 10 11 24 33 27 17 3 5 -12
-58 -75 -25 -25 -36 -39 -25 -31 19 15 19 14 3 -10 -9 -14 -21 -24 -27 -23 -6
2 -8 -4 -5 -12 4 -8 11 -12 17 -8 6 4 7 1 3 -6 -5 -7 -11 -10 -14 -7 -7 8 -33
-14 -27 -24 2 -4 -10 -23 -28 -42 -17 -18 -41 -44 -51 -56 -38 -44 15 -13 64
37 25 25 84 82 130 126 85 81 64 46 -33 -54 -29 -30 -39 -45 -23 -33 27 21 53
21 40 1 -3 -5 -9 -7 -14 -4 -4 3 -13 -2 -20 -10 -7 -8 -9 -15 -5 -15 5 0 0 -9
-10 -20 -10 -11 -21 -17 -25 -15 -4 3 -14 -3 -21 -13 -13 -16 -13 -16 5 -2 11
8 22 14 25 14 3 -1 17 7 30 17 13 11 18 19 12 19 -7 0 -9 5 -5 11 5 8 9 8 14
-1 5 -8 10 -6 15 7 5 10 8 21 7 25 -1 4 5 5 14 1 8 -3 14 -7 12 -9 -2 -1 -64
-64 -138 -140 -74 -75 -126 -132 -115 -126 11 5 32 23 47 39 49 51 83 80 68
58 -8 -11 -19 -24 -25 -30 -5 -5 -41 -44 -80 -85 -100 -106 -22 -38 198 174
104 100 191 183 195 186 27 21 -137 -159 -214 -234 -17 -17 -55 -58 -84 -91
l-54 -60 74 70 c40 39 103 99 140 135 80 79 129 120 80 66 -19 -21 -44 -48
-55 -60 -55 -59 -78 -89 -60 -76 24 18 12 7 113 105 45 44 82 77 82 73 0 -4
-30 -37 -66 -75 -36 -37 -70 -77 -76 -88 -12 -21 78 57 101 88 7 10 19 16 26
13 7 -2 19 1 26 7 11 10 11 9 0 -5 -7 -10 -17 -16 -21 -13 -9 6 -24 -13 -25
-30 -1 -5 -6 -9 -12 -8 -6 1 -19 -8 -29 -20 l-19 -22 23 19 c12 11 22 14 22 8
0 -6 -8 -17 -18 -24 -10 -7 -38 -35 -62 -63 -26 -30 -12 -19 36 28 72 70 107
96 88 65 -4 -7 -3 -8 4 -4 6 4 9 12 6 19 -2 7 5 22 18 33 l22 19 -18 -29 c-18
-28 -18 -29 0 -22 15 6 14 2 -5 -18 -13 -14 -29 -23 -35 -19 -6 3 -8 2 -3 -2
4 -5 -3 -19 -15 -32 -37 -39 -8 -25 37 18 42 40 42 42 44 113 3 156 -31 408
-70 521 -53 150 -112 250 -199 335 -119 119 -251 179 -445 206 -146 20 -185
18 -215 -9z m10 -211 c0 -2 -8 -10 -17 -17 -16 -13 -17 -12 -4 4 13 16 21 21
21 13z m315 -218 c-32 -35 -64 -69 -72 -77 -7 -8 -16 -11 -20 -7 -6 6 134 146
146 146 2 0 -22 -28 -54 -62z m50 -58 c-16 -16 -25 -33 -22 -37 4 -3 7 0 7 7
0 7 3 10 7 7 4 -4 19 5 35 20 15 14 30 24 33 22 2 -3 -30 -42 -72 -88 l-77
-84 -18 53 c-10 30 -16 55 -14 57 2 2 14 6 27 8 13 3 41 23 63 45 26 26 44 36
50 30 6 -6 0 -20 -19 -40z m95 -44 c0 -2 -8 -10 -17 -17 -16 -13 -17 -12 -4 4
13 16 21 21 21 13z m-79 -33 c-16 -30 -100 -107 -108 -99 -6 6 103 116 115
116 1 0 -2 -8 -7 -17z m52 -40 c-14 -17 -28 -33 -31 -35 -4 -2 -29 -29 -56
-60 -27 -32 -52 -58 -57 -58 -11 0 -12 80 -1 80 4 0 32 25 63 54 40 38 64 54
82 53 l24 -2 -24 -32z m173 -154 c-14 -17 -24 -34 -21 -39 2 -4 -4 -15 -15
-25 -11 -10 -17 -22 -13 -28 4 -6 1 -7 -6 -2 -10 6 -8 12 8 28 19 19 19 21 3
34 -16 12 -16 14 2 28 10 8 22 12 26 10 4 -3 13 2 20 10 7 8 15 15 17 15 3 0
-7 -14 -21 -31z m131 3 c-10 -10 -14 -22 -10 -27 5 -4 2 -5 -5 -1 -11 6 -10
12 4 27 9 10 19 19 22 19 3 0 -2 -8 -11 -18z m-407 -55 c0 -2 -10 -12 -22 -23
l-23 -19 19 23 c18 21 26 27 26 19z m480 0 c0 -2 -10 -12 -22 -23 l-23 -19 19
23 c18 21 26 27 26 19z m-70 -132 c-7 -8 -9 -15 -4 -15 11 0 -14 -25 -26 -26
-6 -1 -11 -2 -12 -4 -7 -5 -38 -8 -38 -3 0 15 36 31 47 21 7 -6 14 -8 14 -4 1
3 2 9 3 14 2 11 17 32 23 32 3 0 0 -7 -7 -15z m120 -39 c0 -2 -8 -10 -17 -17
-16 -13 -17 -12 -4 4 13 16 21 21 21 13z m50 -40 c0 -2 -8 -10 -17 -17 -16
-13 -17 -12 -4 4 13 16 21 21 21 13z"/>
<path d="M3069 2608 l-22 -33 31 29 c34 32 37 36 23 36 -5 0 -20 -15 -32 -32z"/>
<path d="M3249 2443 c-13 -16 -12 -17 4 -4 9 7 17 15 17 17 0 8 -8 3 -21 -13z"/>
<path d="M2170 3179 c-19 -10 -68 -51 -109 -92 -55 -56 -72 -80 -67 -93 6 -14
26 3 111 91 58 59 104 109 103 110 -2 1 -19 -6 -38 -16z"/>
<path d="M2650 3180 c-12 -8 -12 -10 -1 -10 11 0 11 -3 0 -17 -11 -15 -11 -16
1 -6 8 7 15 20 16 28 3 18 3 17 -16 5z"/>
<path d="M2127 3050 c-38 -39 -72 -68 -77 -65 -9 6 -23 -12 -26 -32 -4 -23 9
-14 75 50 35 34 60 55 55 47 -4 -8 -32 -37 -61 -64 -29 -27 -53 -55 -53 -62 0
-21 14 -17 40 11 12 13 27 22 33 18 6 -3 7 -2 4 4 -8 12 37 56 47 46 4 -4 4 0
1 9 -4 10 3 23 19 36 31 23 34 37 7 22 -34 -18 -36 -11 -6 20 16 17 25 30 19
30 -5 -1 -40 -32 -77 -70z"/>
<path d="M714 3089 c-49 -52 -185 -179 -192 -179 -4 0 -33 -24 -64 -52 l-56
-53 -6 -987 -7 -988 290 0 291 0 94 50 c52 27 99 50 104 50 5 0 15 -28 21 -62
6 -35 16 -82 23 -106 l11 -42 141 5 c77 3 182 10 231 15 50 5 124 12 165 16
41 3 82 10 91 15 9 4 61 2 120 -7 57 -8 185 -17 285 -21 161 -5 195 -3 310 17
133 24 218 53 339 116 39 20 96 50 128 67 32 16 56 32 53 34 -2 2 -34 -5 -71
-16 -90 -28 -310 -46 -458 -36 -64 4 -117 10 -117 14 0 4 -15 5 -32 3 l-33 -5
20 24 20 24 -26 -23 c-33 -29 -95 -28 -93 1 2 17 1 17 -17 1 -11 -9 -22 -14
-26 -11 -3 4 70 85 163 179 l169 173 -140 -135 c-77 -74 -158 -152 -179 -174
-22 -21 -42 -34 -44 -28 -3 10 152 174 399 421 25 25 63 66 84 91 21 25 -41
-34 -138 -130 -97 -96 -179 -171 -182 -168 -3 3 29 40 72 83 43 43 69 73 58
67 -11 -6 -81 -72 -155 -146 -74 -74 -136 -133 -139 -131 -2 3 2 12 10 22 9
11 10 14 2 9 -10 -6 -13 59 -14 311 -1 175 -3 404 -4 508 -2 105 -4 313 -5
463 -2 198 -6 270 -14 263 -6 -5 -15 -9 -19 -9 -5 0 -12 -4 -15 -8 -4 -4 0 -4
8 0 8 4 3 -2 -12 -14 -28 -21 -41 -59 -15 -44 9 6 9 4 1 -7 -6 -8 -12 -45 -13
-84 -7 -236 -69 -394 -206 -527 -31 -30 -55 -62 -55 -73 1 -27 84 -308 100
-337 5 -10 14 -35 19 -57 8 -39 8 -40 -55 -100 -62 -60 -95 -82 -58 -38 l19
22 -22 -19 c-12 -10 -21 -23 -20 -29 1 -6 -3 -11 -9 -12 -10 0 -183 -151 -271
-237 -14 -14 -26 -19 -31 -13 -5 6 -19 54 -32 107 -20 84 -21 100 -9 115 13
16 12 17 -3 5 -15 -12 -18 -10 -23 15 -5 26 -42 168 -70 275 -12 46 -12 46 24
84 20 21 27 31 16 23 -11 -8 -26 -22 -34 -32 -16 -22 -25 -15 -41 36 -9 30
-16 37 -37 37 l-25 0 7 -75 7 -75 -212 -207 c-117 -115 -247 -239 -288 -278
l-76 -70 52 58 c29 32 49 64 46 69 -4 6 -2 8 3 5 6 -4 18 2 28 13 10 11 14 20
10 20 -4 0 0 9 10 20 10 11 21 18 25 15 4 -2 18 8 31 23 22 25 22 25 2 8 -40
-34 -25 -7 30 52 49 53 47 52 -32 -18 -46 -41 -88 -75 -92 -75 -4 0 -25 -18
-46 -40 -21 -21 -29 -33 -18 -25 19 14 19 14 6 -3 -8 -9 -16 -15 -19 -12 -3 3
-11 0 -18 -6 -7 -6 -18 -8 -24 -4 -10 6 41 64 165 189 l30 30 -30 -18 c-16
-11 -58 -47 -93 -80 -35 -34 -68 -63 -74 -65 -8 -3 -9 37 -4 140 3 79 6 414 6
744 -1 330 -1 620 0 644 1 39 -1 43 -15 31 -13 -11 -15 -10 -9 4 3 9 10 16 15
16 5 0 9 12 9 26 0 23 -2 25 -15 14 -13 -11 -14 -10 -9 4 3 9 10 16 16 16 5 0
8 32 7 74 -3 60 -6 73 -16 64 -17 -13 -17 -31 0 -22 6 4 -1 -7 -17 -24 -17
-18 -32 -32 -35 -32 -2 0 6 11 19 25 43 46 6 25 -49 -27 -72 -69 -53 -37 32
51 37 39 67 78 67 87 0 10 -17 -1 -47 -32 -59 -60 -113 -108 -113 -100 0 3 36
43 80 88 44 46 80 92 80 103 0 15 -12 8 -53 -33 -29 -29 -57 -52 -62 -52 -5 0
19 29 55 65 35 35 62 67 59 70 -3 3 -14 -4 -25 -16z m-119 -159 c-10 -11 -23
-20 -28 -20 -6 0 0 11 13 25 27 29 42 25 15 -5z m65 -83 c0 -2 -10 -12 -22
-23 l-23 -19 19 23 c18 21 26 27 26 19z m1530 -252 c-10 -12 -10 -15 0 -15 9
0 10 -3 1 -13 -6 -8 -9 -16 -6 -19 3 -2 -2 -5 -10 -5 -18 0 -19 9 -2 26 10 12
8 13 -8 7 -16 -5 -15 -2 5 14 30 24 37 25 20 5z m-874 -1104 c-2 -15 -7 -34
-11 -41 -5 -9 -4 -11 3 -6 8 5 12 -4 12 -27 0 -29 -10 -43 -67 -97 -111 -104
-159 -146 -144 -127 7 9 10 17 6 17 -5 0 0 9 11 21 10 12 19 24 19 28 0 3 3 5
7 4 3 -1 12 4 18 13 11 12 10 13 -6 8 -14 -4 -13 -1 6 14 13 11 29 18 34 15 5
-4 6 -1 2 6 -5 8 11 31 43 62 71 69 49 61 -29 -10 -64 -58 -92 -73 -54 -29 10
13 -7 -1 -38 -31 -78 -75 -104 -87 -37 -18 30 32 90 95 134 141 44 46 83 85
87 85 4 1 6 -12 4 -28z m691 -93 c-2 -7 2 -17 8 -23 7 -5 25 -48 39 -93 27
-82 27 -84 9 -105 l-18 -22 22 18 22 19 15 -53 c9 -29 16 -54 16 -57 0 -9
-151 -152 -162 -154 -7 -1 -36 -2 -65 -3 l-52 -2 41 39 c22 21 43 36 48 33 4
-2 7 4 6 15 0 10 24 48 54 82 45 52 47 57 15 27 -22 -19 -79 -73 -126 -120
-82 -82 -87 -85 -135 -87 -40 -2 -46 0 -34 11 8 6 51 50 95 97 83 87 47 60
-63 -49 -35 -35 -66 -61 -68 -58 -3 3 31 40 75 84 45 44 81 82 81 85 0 4 -8 5
-17 3 -10 -1 -17 -8 -15 -14 1 -7 -6 -11 -15 -9 -12 2 -17 -3 -15 -14 1 -9 -3
-20 -9 -24 -8 -5 -9 -3 -4 6 5 8 -10 1 -32 -16 -23 -16 -39 -33 -35 -38 3 -5
-2 -7 -10 -3 -19 7 -53 -27 -43 -42 3 -6 0 -8 -8 -5 -8 3 -18 0 -23 -7 -5 -8
-3 -10 7 -4 8 5 10 4 6 0 -13 -15 -37 -14 -37 1 0 13 50 72 136 159 88 90 230
242 253 270 l24 30 -34 -32 c-19 -18 -50 -46 -69 -63 -19 -17 -46 -41 -60 -53
-14 -12 -25 -22 -25 -20 0 1 42 47 94 102 88 94 119 119 108 89z m-685 -165
l5 -122 -47 -46 c-30 -29 -54 -45 -70 -45 -25 1 -25 1 -5 18 11 9 27 26 35 37
8 11 -4 3 -26 -17 -38 -36 -42 -37 -104 -35 -64 3 -65 4 -65 31 0 15 5 28 10
28 21 0 46 20 41 33 -2 7 3 19 12 27 16 12 16 11 2 -6 -14 -18 -14 -18 7 -6
12 8 21 16 20 19 -3 14 15 51 25 51 6 0 5 -7 -3 -17 -13 -16 -12 -17 4 -4 9 8
15 16 12 19 -8 9 17 32 28 25 5 -3 7 -1 4 4 -5 8 102 134 110 129 0 -1 3 -56
5 -123z m-172 74 c0 -2 -12 -14 -27 -28 -20 -18 -24 -19 -13 -4 18 24 40 42
40 32z m684 -30 c-2 -7 -14 -19 -27 -26 -21 -13 -21 -12 2 13 27 29 33 32 25
13z m-974 -91 c0 -2 -8 -10 -17 -17 -16 -13 -17 -12 -4 4 13 16 21 21 21 13z
m930 1 c0 -2 -10 -12 -22 -23 l-23 -19 19 23 c18 21 26 27 26 19z m514 -91
c-44 -40 -80 -73 -82 -71 -2 1 32 37 74 79 43 41 80 74 82 71 3 -2 -31 -38
-74 -79z m-574 30 c0 -2 -8 -10 -17 -17 -16 -13 -17 -12 -4 4 13 16 21 21 21
13z m-412 -75 c1 -26 -3 -30 -28 -29 -16 1 -27 5 -24 10 3 5 13 7 22 3 9 -3
13 -3 10 1 -6 6 8 44 16 44 2 0 3 -13 4 -29z m817 -11 c-3 -5 -1 -10 4 -10 18
0 12 -56 -7 -73 -10 -9 -43 -18 -73 -21 l-56 -6 56 59 c31 33 62 60 69 60 7 1
10 -3 7 -9z m-468 -83 c0 -8 -6 -14 -14 -14 -9 0 -10 4 -2 14 6 7 12 13 14 13
1 0 2 -6 2 -13z"/>
<path d="M1209 1393 c-13 -16 -12 -17 4 -4 9 7 17 15 17 17 0 8 -8 3 -21 -13z"/>
<path d="M1179 1113 c-13 -16 -12 -17 4 -4 9 7 17 15 17 17 0 8 -8 3 -21 -13z"/>
<path d="M1120 1075 c-7 -8 -9 -15 -5 -15 4 0 2 -6 -4 -13 -8 -10 -7 -14 4
-14 8 0 12 4 9 9 -3 4 -1 8 4 8 13 0 23 28 13 35 -5 2 -14 -2 -21 -10z"/>
<path d="M1067 1062 c-21 -23 -21 -28 1 -28 12 0 18 8 18 23 0 28 1 27 -19 5z"/>
<path d="M2079 953 c-13 -16 -12 -17 4 -4 16 13 21 21 13 21 -2 0 -10 -8 -17
-17z"/>
<path d="M1986 3075 c-22 -19 -36 -38 -32 -42 4 -4 26 12 49 35 50 50 38 55
-17 7z"/>
<path d="M432 3060 c-12 -5 -25 -17 -28 -25 -11 -28 2 -26 31 5 31 33 31 33
-3 20z"/>
<path d="M490 3062 c0 -7 -3 -11 -7 -9 -5 1 -10 -2 -13 -8 -2 -5 -18 -19 -35
-30 -24 -17 -30 -29 -32 -60 -2 -38 -1 -39 13 -20 8 11 11 21 6 23 -5 1 3 16
19 33 16 17 33 28 39 24 6 -4 10 -3 9 2 -1 4 1 16 6 26 4 10 5 21 1 24 -3 4
-6 1 -6 -5z"/>
<path d="M2189 3023 c-13 -16 -12 -17 4 -4 9 7 17 15 17 17 0 8 -8 3 -21 -13z"/>
<path d="M569 3003 c-13 -16 -12 -17 4 -4 9 7 17 15 17 17 0 8 -8 3 -21 -13z"/>
<path d="M445 2980 c-10 -11 -13 -20 -7 -20 6 0 16 9 22 20 6 11 9 20 7 20 -2
0 -12 -9 -22 -20z"/>
<path d="M524 2960 c-5 -5 -18 -11 -29 -13 -34 -6 -97 -72 -93 -97 3 -22 4
-22 33 8 88 90 108 112 104 112 -3 0 -9 -4 -15 -10z"/>
<path d="M429 2923 c-13 -16 -12 -17 4 -4 9 7 17 15 17 17 0 8 -8 3 -21 -13z"/>
<path d="M2079 2913 l-24 -28 28 24 c25 23 32 31 24 31 -2 0 -14 -12 -28 -27z"/>
<path d="M2609 2923 c-13 -16 -12 -17 4 -4 16 13 21 21 13 21 -2 0 -10 -8 -17
-17z"/>
<path d="M2138 2874 c-32 -31 -55 -61 -51 -67 4 -6 26 11 53 41 26 29 51 52
55 52 5 0 -16 -26 -48 -58 -32 -32 -55 -61 -52 -64 4 -3 9 -27 13 -53 l7 -47
23 18 c13 11 24 27 26 36 1 10 12 29 25 42 13 13 21 32 19 43 -3 15 -10 11
-44 -25 -23 -23 -45 -42 -50 -42 -5 0 14 23 41 50 42 42 50 57 52 90 1 22 -2
40 -5 40 -4 0 -33 -25 -64 -56z m12 -148 c0 -2 -8 -10 -17 -17 -16 -13 -17
-12 -4 4 13 16 21 21 21 13z"/>
<path d="M2104 2885 c-19 -19 -32 -35 -28 -35 4 0 22 16 41 35 19 19 31 35 28
35 -3 0 -21 -16 -41 -35z"/>
<path d="M1311 2461 c2 -174 5 -326 7 -338 10 -50 119 5 159 81 8 15 10 25 3
21 -6 -3 -2 8 10 27 17 29 20 50 20 174 0 141 -8 185 -50 276 -18 39 -78 77
-118 76 l-33 -1 2 -316z"/>
<path d="M2185 2760 c-12 -13 -14 -20 -5 -20 10 0 9 -4 -1 -17 -13 -17 -13
-17 6 -3 19 14 19 14 6 -3 -8 -9 -16 -15 -19 -12 -3 3 -17 -6 -32 -20 -21 -20
-25 -32 -22 -60 l4 -36 44 45 c43 43 57 86 34 101 -8 5 -7 11 1 21 19 23 4 26
-16 4z"/>
<path d="M3239 2143 c-13 -16 -12 -17 4 -4 16 13 21 21 13 21 -2 0 -10 -8 -17
-17z"/>
<path d="M3581 2038 c-8 -13 -12 -23 -10 -24 2 0 -2 -9 -10 -20 -8 -10 -2 -7
13 7 15 15 26 34 24 43 -2 14 -5 13 -17 -6z"/>
<path d="M3459 1973 l-24 -28 28 24 c15 14 27 26 27 28 0 8 -8 1 -31 -24z"/>
<path d="M3578 1983 c-26 -31 -31 -43 -13 -37 16 7 40 43 32 50 -2 2 -11 -4
-19 -13z"/>
<path d="M3519 1913 c-13 -16 -12 -17 4 -4 16 13 21 21 13 21 -2 0 -10 -8 -17
-17z"/>
<path d="M3149 1873 c-13 -16 -12 -17 4 -4 16 13 21 21 13 21 -2 0 -10 -8 -17
-17z"/>
<path d="M3039 1823 c-13 -16 -12 -17 4 -4 16 13 21 21 13 21 -2 0 -10 -8 -17
-17z"/>
<path d="M1484 1708 l-19 -23 23 19 c21 18 27 26 19 26 -2 0 -12 -10 -23 -22z"/>
<path d="M2669 1483 c-13 -16 -12 -17 4 -4 16 13 21 21 13 21 -2 0 -10 -8 -17
-17z"/>
<path d="M2714 1438 l-19 -23 23 19 c21 18 27 26 19 26 -2 0 -12 -10 -23 -22z"/>
<path d="M2664 1388 l-19 -23 23 19 c21 18 27 26 19 26 -2 0 -12 -10 -23 -22z"/>
<path d="M1069 1383 c-13 -16 -12 -17 4 -4 9 7 17 15 17 17 0 8 -8 3 -21 -13z"/>
<path d="M2604 1328 l-19 -23 23 19 c21 18 27 26 19 26 -2 0 -12 -10 -23 -22z"/>
<path d="M899 1183 c-13 -16 -12 -17 4 -4 9 7 17 15 17 17 0 8 -8 3 -21 -13z"/>
<path d="M2444 1018 l-19 -23 23 19 c12 11 22 21 22 23 0 8 -8 2 -26 -19z"/>
<path d="M2329 1013 c-13 -16 -12 -17 4 -4 16 13 21 21 13 21 -2 0 -10 -8 -17
-17z"/>
</g>
</svg>
